<svg xmlns="http://www.w3.org/2000/svg" width="385.328" height="551.426" viewBox="0 0 385.328 551.426">
  <g id="Group_8077" data-name="Group 8077" transform="translate(-550.163 -1168)">
    <path id="Path_11" data-name="Path 11" d="M331.854,20.835C335.443,13.781,338.908,6.588,343.3,0c3.531,4.087,5.313,9.212,7.888,13.9,6.179,10.839,11.8,21.988,17.566,33.055,6.539,11.533,12.49,23.41,18.694,35.148,3.539,5.934,6.318,12.261,9.653,18.326-4.9,3-10.749,3.768-16.3,4.782a99.14,99.14,0,0,0-35.761,13.969c-4.765,3.67-9.972,6.809-14.157,11.174-21.759,19.617-37.543,45.9-43.787,74.538-2.591,13.422-4.087,27.121-2.885,40.788,1.161,7.937,1.831,15.955,3.6,23.8.817,3.507,2.207,6.842,3.1,10.332,2.182,8.583,6.253,16.511,10.013,24.481,5.787,11.787,14.141,22.069,20.2,33.685a189.17,189.17,0,0,1,12.122,27.211c2.608,6.049,3.531,12.62,5.509,18.873a99.648,99.648,0,0,1,2.452,24.26c0,11.492-1.079,23.484-6.85,33.676-2.885,4.618-7.3,9.163-13.119,9.22-7.07.613-13.413-3.621-17.983-8.583-5.223-5.28-8.288-12.138-11.337-18.8-1.888-5.869-4.087-11.689-4.962-17.827-1.242-9.809-1.855-19.748-.564-29.573.351-6.989,2.411-13.732,3.27-20.647-3.082,1.234-3.188,5.019-4.618,7.577-2.5,4.9-3.6,10.348-5.656,15.432-1.488,3.948-2.06,8.174-3.368,12.155-2.534,7.7-3.4,15.808-4.316,23.819-1.357,9.171-.744,18.473-.539,27.7-.932,10.356,1.381,20.549,4.144,30.448,3.8,17.165,9.645,34.33,20.14,48.643,3.27,4.267,6.261,9.122,11.067,11.868,4.013,2.37,7.177,5.877,10.937,8.607,2.558,2.084,5.55,3.6,8.01,5.812.719,1.161,1.39,2.37,2.06,3.58-7.275-.973-13.291-5.493-20.23-7.528-10.691-6.008-17.737-16.4-25.519-25.543-4.16,2.624-5.722,7.888-9.612,10.626-7-2.338-13.422-6-20.042-9.2a196.6,196.6,0,0,1-21.154-13.144,32.7,32.7,0,0,1-5.9-5.493,5.77,5.77,0,0,1,.368-3.106c1.774-4.733,4.536-8.991,6.662-13.552.817-2.166,1.308-5.141-.768-6.76-6.057-5.959-13.078-10.986-18.04-18.032-7.275.441-12.792,5.959-19.617,7.855-2.223.76-3.588-1.471-4.823-2.894a193.154,193.154,0,0,1-12.768-19.805c-4.348-8.362-9.326-16.626-11.3-25.944,6.179-5.248,13.078-9.539,19.724-14.165-.106-9.048-4.553-17.28-5.338-26.222-4-1.447-8.239-1.8-12.416-2.338-4.487-.482-9.057.131-13.5-.817-1.063-5.869-.866-11.852-1.014-17.786-.082-12.964-.368-26.009,1.839-38.842a228.787,228.787,0,0,1,25.339-2.558c2.836-8.133,4.79-16.511,7.16-24.783-5.444-6.253-14.018-8.525-19.487-14.77v-1.635c4.97-13.732,12.857-26.156,21.187-38.09a45.774,45.774,0,0,1,7.912-9.114c4.087,2.052,8.378,3.629,12.563,5.452,3.27,1.43,6.466,3.221,9.956,4.169a54.486,54.486,0,0,0,5.419-8.656c3.2-6.6,7.013-12.882,10.25-19.462,3.588-5.991,6.3-12.449,9.907-18.432,7.234-13.65,14.149-27.464,21.154-41.245,5.117-8.991,9.465-18.326,14.124-27.53,5.722-10.716,11.329-21.489,16.626-32.418,5.19-9.392,9.809-19.07,14.713-28.609,3.564-6.539,6.931-13.25,10.332-19.9C324.5,34.224,328.691,27.791,331.854,20.835Z" transform="translate(398.004 1168)" fill="#1175c0"/>
    <path id="Path_14" data-name="Path 14" d="M582.87,337.5c-.262-1.079-.76-2.452-2.052-2.509-7.356-.5-14.713-.948-22.069-1.962-1.839-5.239-3.033-10.626-4.651-15.964a40.582,40.582,0,0,1-1.9-8.092c1.275-2.084,3.474-3.31,5.354-4.79,4.291-2.992,8.427-6.2,12.719-9.187-1.447-7.561-5.338-14.3-8.91-21.007-3.964-6.8-8.133-13.487-12.727-19.887a22.07,22.07,0,0,0-4.4-4.708c-1.03-1.635-2.575-3.458-4.708-2.934-6.041.67-10.463,5.436-16.16,7.128-1.5.294-3.351,1.708-4.626.245-1.537-1.635-2.452-3.842-4.242-5.272a20.731,20.731,0,0,0-1.978-4.9c-6.752-11.95-13.438-23.933-19.617-36.178-2.689-5.411-5.934-10.536-8.468-16.037-1.8-4.013-4.349-7.634-6.212-11.615a225.687,225.687,0,0,0-12.964-23.59,22.021,22.021,0,0,1,1.161-18.391,93.606,93.606,0,0,1,9.2-15.334c5.166-7.079,12.089-12.547,18.8-18.048,3.327-2.657,7.209-4.635,10.021-7.9a23.157,23.157,0,0,0-12.547,3.629c-6.065,2.55-11.443,6.539-16.912,10.176a183.567,183.567,0,0,0-32.883,31.755c-10.92,14.435-19.838,30.587-24.914,48.013-2.746,7.177-3.131,14.917-4.635,22.388-.948,15.694-.245,31.952,5.869,46.648,4.2,12.416,11.828,23.778,22.4,31.625,7.275,5.15,16.086,8.664,25.126,7.953,4.234-.278,8.771-1.79,11.264-5.452,4.2-5.321,3.891-12.858,1.455-18.865-3.817-11.116-13.732-18.849-17.549-29.949a10.054,10.054,0,0,1,3.752,1.806c5.011,3.973,9.065,8.991,13.242,13.765a225.232,225.232,0,0,1,15.751,21.792,121.643,121.643,0,0,1,16.658,52.509c.123,11.443.662,22.944-.817,34.33-.164,10.381-4.087,20.173-6.179,30.243a446.994,446.994,0,0,1-19.478,54.013c-6.359,16.119-13.8,31.78-21.383,47.351a47.131,47.131,0,0,0-4.626,22.887,38.082,38.082,0,0,0,5.28,20.026c.948,1.022,1.635,3.033,3.384,2.518a16.444,16.444,0,0,0,4.855-1.479,213.785,213.785,0,0,0,26.312-14.533c5.6-3.785,11.378-7.455,16.029-12.432-2.591-7.479-6.907-14.321-9.179-21.873,1.635-3.27,4.757-5.387,7.25-7.945,3.686-3.408,6.686-7.487,10.454-10.8,1.422-1.455,3.5-.147,5.109.262l.474.188,1.913.817.638.278.817.384.67.327.907.441.646.311.752.368.5.237c3.27,1.341,6.335,3.09,9.686,4.169,1.038.409,1.733-.6,2.387-1.226a93.684,93.684,0,0,0,12.179-18.056c4.855-9.106,10.585-18.072,12.858-28.257.817-2.452-1.488-3.809-3.18-4.9l-.27-.18c-1.054-.727-2.109-1.439-3.139-2.166l-.262-.18c-3.621-2.264-6.686-5.722-10.994-6.67l-.3-.392c1.635-9.138,4.308-18.056,5.771-27.235,3.27-.646,18.849-1.97,23.884-2.379,1.708-6.253,1.349-12.768,1.488-19.168C584.962,361.532,585.322,349.353,582.87,337.5Z" transform="translate(350.518 1150.367)" fill="#f05a28"/>
  </g>
</svg>
